<?xml version="1.0" standalone="no"?>
<!DOCTYPE svg PUBLIC "-//W3C//DTD SVG 20010904//EN"
 "http://www.w3.org/TR/2001/REC-SVG-20010904/DTD/svg10.dtd">
<svg version="1.0" xmlns="http://www.w3.org/2000/svg"
 width="100.000000pt" height="100.000000pt" viewBox="0 0 100.000000 100.000000"
 preserveAspectRatio="xMidYMid meet">
<metadata>
Created by potrace 1.14, written by Peter Selinger 2001-2017
</metadata>
<g transform="translate(0.000000,100.000000) scale(0.100000,-0.100000)"
fill="#000000" stroke="none">
<path d="M260 915 l0 -85 205 0 205 0 0 35 c0 19 5 35 10 35 6 0 10 -16 10
-35 0 -28 4 -35 20 -35 17 0 20 7 20 50 0 49 -1 50 -30 50 -28 0 -30 3 -30 35
l0 35 -205 0 -205 0 0 -85z m443 -2 c-7 -2 -19 -2 -25 0 -7 3 -2 5 12 5 14 0
19 -2 13 -5z"/>
<path d="M180 735 l0 -85 85 0 85 0 0 85 0 85 -85 0 -85 0 0 -85z"/>
<path d="M580 785 l0 -35 -105 0 -105 0 0 -50 c0 -43 3 -50 20 -50 16 0 20 7
20 35 l0 35 85 0 85 0 0 -35 0 -35 85 0 85 0 0 35 c0 19 5 35 10 35 6 0 10
-16 10 -35 0 -31 3 -35 25 -35 23 0 25 3 25 50 l0 50 -35 0 c-33 0 -35 2 -35
35 l0 35 -85 0 -85 0 0 -35z m-42 -52 c-26 -2 -71 -2 -100 0 -29 2 -8 3 47 3
55 0 79 -1 53 -3z m245 0 c-7 -2 -19 -2 -25 0 -7 3 -2 5 12 5 14 0 19 -2 13
-5z"/>
<path d="M180 555 l0 -85 285 0 285 0 0 85 0 85 -285 0 -285 0 0 -85z"/>
<path d="M770 555 c0 -84 0 -85 25 -85 25 0 25 1 25 85 0 84 0 85 -25 85 -25
0 -25 -1 -25 -85z"/>
<path d="M180 375 l0 -85 85 0 85 0 0 85 0 85 -85 0 -85 0 0 -85z"/>
<path d="M580 425 l0 -35 -105 0 -105 0 0 -50 c0 -43 3 -50 20 -50 16 0 20 7
20 35 l0 35 85 0 85 0 0 -35 0 -35 85 0 85 0 0 85 0 85 -85 0 -85 0 0 -35z
m-42 -52 c-26 -2 -71 -2 -100 0 -29 2 -8 3 47 3 55 0 79 -1 53 -3z"/>
<path d="M770 375 c0 -84 0 -85 25 -85 25 0 25 1 25 85 0 84 0 85 -25 85 -25
0 -25 -1 -25 -85z"/>
<path d="M180 195 l0 -85 85 0 85 0 0 85 0 85 -85 0 -85 0 0 -85z"/>
<path d="M370 195 c0 -78 2 -85 20 -85 18 0 20 7 20 85 0 78 -2 85 -20 85 -18
0 -20 -7 -20 -85z"/>
<path d="M580 195 l0 -85 85 0 85 0 0 85 0 85 -85 0 -85 0 0 -85z"/>
<path d="M770 195 c0 -84 0 -85 25 -85 25 0 25 1 25 85 0 84 0 85 -25 85 -25
0 -25 -1 -25 -85z"/>
<path d="M210 50 l0 -50 100 0 100 0 0 50 c0 43 -3 50 -20 50 -16 0 -20 -7
-20 -35 l0 -35 -60 0 -60 0 0 35 c0 28 -4 35 -20 35 -17 0 -20 -7 -20 -50z
m143 -37 c-24 -2 -62 -2 -86 0 -23 2 -4 4 43 4 47 0 66 -2 43 -4z"/>
<path d="M610 50 l0 -50 105 0 105 0 0 50 c0 47 -2 50 -25 50 -22 0 -25 -4
-25 -35 l0 -35 -60 0 -60 0 0 35 c0 28 -4 35 -20 35 -17 0 -20 -7 -20 -50z
m143 -37 c-24 -2 -62 -2 -85 0 -24 2 -5 4 42 4 47 0 66 -2 43 -4z"/>
</g>
</svg>
